<svg xmlns="http://www.w3.org/2000/svg" width="100.072" height="88.394" viewBox="0 0 100.072 88.394">
  <g id="Group_290" data-name="Group 290" transform="translate(-15.915 -13.32)">
    <g id="Group_290-2" data-name="Group 290" transform="translate(69.705 55.439)">
      <path id="Path_168" data-name="Path 168" d="M80.38,55.37V46.017l-4.916-.627a18.809,18.809,0,0,0-1.591-3.819L76.9,37.637l-6.614-6.614L66.38,34.061a18.034,18.034,0,0,0-3.845-1.591l-.627-4.91H52.563l-.627,4.91a17.7,17.7,0,0,0-3.828,1.591l-3.925-3.038-6.614,6.614L40.6,41.562A19.658,19.658,0,0,0,39,45.39l-4.9.627V55.37l4.9.636a19.21,19.21,0,0,0,1.6,3.828l-3.029,3.913,6.614,6.626,3.925-3.038a18.473,18.473,0,0,0,3.828,1.591l.627,4.907h9.344l.627-4.916a18.318,18.318,0,0,0,3.845-1.583l3.907,3.038L76.9,63.747l-3.029-3.913a18.677,18.677,0,0,0,1.591-3.828ZM59.653,60.588a9.97,9.97,0,0,1-2.414.29,10.415,10.415,0,0,1-2.372-.275,10.185,10.185,0,1,1,4.786-.015Z" transform="translate(-34.099 -27.559)" fill="#78be1f"/>
    </g>
    <g id="Group_291" data-name="Group 291" transform="translate(37.762 39.957)">
      <path id="Path_169" data-name="Path 169" d="M40.453,24.691l-7.22,7.729-.674.769-7.277,7.777A7.341,7.341,0,1,0,36.019,50.979L43.3,43.2l.671-.769L51.2,34.651a7.325,7.325,0,1,0-10.743-9.96Zm2.411,18.141-7.212,7.679A6.7,6.7,0,1,1,25.814,41.4l7.217-7.732Z" transform="translate(-23.3 -22.325)" fill="#78be1f"/>
    </g>
    <g id="Group_292" data-name="Group 292" transform="translate(15.914 13.32)">
      <path id="Path_170" data-name="Path 170" d="M97.563,13.32H20.1a4.192,4.192,0,0,0-4.186,4.189V90.784A4.192,4.192,0,0,0,20.1,94.972H65.561V88.689H20.1V27.977H97.563l0,20.741h4.189V17.509A4.19,4.19,0,0,0,97.563,13.32ZM23.315,23.788a3.14,3.14,0,1,1,3.141-3.138A3.141,3.141,0,0,1,23.315,23.788Zm9.421,0a3.14,3.14,0,1,1,3.141-3.138A3.141,3.141,0,0,1,32.736,23.788Zm9.421,0A3.14,3.14,0,1,1,45.3,20.65,3.141,3.141,0,0,1,42.157,23.788Z" transform="translate(-15.914 -13.32)" fill="#78be1f"/>
    </g>
  </g>
</svg>
