<svg xmlns="http://www.w3.org/2000/svg" width="120.001" height="79.132" viewBox="0 0 120.001 79.132">
  <g id="Group_293" data-name="Group 293" transform="translate(-11.688 -14.32)">
    <path id="Path_171" data-name="Path 171" d="M15.3,80.491h0l1.365-.389A55.087,55.087,0,0,1,18.23,54.142,50.517,50.517,0,0,1,23.3,42.629a59.562,59.562,0,0,1,7.419-9.564,32.285,32.285,0,0,1,2.73-2.537L27.6,21.159A59.4,59.4,0,0,0,11.984,56.291a56.246,56.246,0,0,0,2.148,22.25,10.418,10.418,0,0,0,.976,2.146h.2Z" transform="translate(0 12.57)" fill="#78be1f"/>
    <path id="Path_172" data-name="Path 172" d="M94.407,29.823a50.653,50.653,0,0,0-8.2-6.246A61.426,61.426,0,0,0,59.859,14.6a59.079,59.079,0,0,0-38.645,9.757l6.831,11.125a45.77,45.77,0,0,1,4.686-1.754A49.88,49.88,0,0,1,43.464,31.58,47.524,47.524,0,0,1,54,31.972a41.193,41.193,0,0,1,18.152,7.8c.585.587,1.365.976,1.953,1.564l20.3-11.517Z" transform="translate(17.509 0)" fill="#78be1f"/>
    <path id="Path_173" data-name="Path 173" d="M74.61,60.015a53.238,53.238,0,0,1-2.926,13.662l-.585-.2L42.6,64.5a25.441,25.441,0,0,0,2.926-6.638A32.79,32.79,0,0,0,46.9,50.255V47.133L67,25.079A58.907,58.907,0,0,1,74.61,60.015Z" transform="translate(56.823 19.775)" fill="#78be1f"/>
    <path id="Path_174" data-name="Path 174" d="M87.636,22.793c-.2-.585-.976-.585-1.365-.389l-52.5,29.081a14.686,14.686,0,0,0-2.733,2.146,10.917,10.917,0,1,0,16.2,14.638l40.4-44.3C87.832,23.573,88.028,23.184,87.636,22.793ZM38.45,67.1A5.584,5.584,0,1,1,44.5,62.026,5.4,5.4,0,0,1,38.45,67.1Z" transform="translate(30.33 14.642)" fill="#78be1f"/>
  </g>
</svg>
