<svg xmlns="http://www.w3.org/2000/svg" width="82.652" height="82.635" viewBox="0 0 82.652 82.635">
  <g id="Group_288" data-name="Group 288" transform="translate(-16.376 -11.812)">
    <path id="Path_161" data-name="Path 161" d="M99.028,61.471v-16.7L90.247,43.65a33.5,33.5,0,0,0-2.841-6.819l5.405-7.025L81,17.993l-6.972,5.423a32.585,32.585,0,0,0-6.872-2.841l-1.118-8.763H49.352l-1.12,8.763a31.918,31.918,0,0,0-6.837,2.841l-7.008-5.423L22.575,29.806l5.408,7.008a35.182,35.182,0,0,0-2.858,6.837l-8.748,1.118v16.7l8.748,1.138a34.334,34.334,0,0,0,2.858,6.834l-5.408,6.993,11.813,11.83,7.008-5.425a32.84,32.84,0,0,0,6.837,2.841l1.12,8.766H66.037l1.118-8.783a32.535,32.535,0,0,0,6.872-2.823L81,88.265l11.812-11.83-5.405-6.993a33.219,33.219,0,0,0,2.841-6.834ZM63.573,77.176a24.362,24.362,0,0,1-5.87.706,25.346,25.346,0,0,1-5.769-.673,24.76,24.76,0,1,1,11.639-.033Z" fill="#78be1f"/>
    <path id="Path_162" data-name="Path 162" d="M37.333,36.493a7.117,7.117,0,1,0-7.108-7.126A7.121,7.121,0,0,0,37.333,36.493Z" transform="translate(20.935 15.793)" fill="#78be1f"/>
    <path id="Path_163" data-name="Path 163" d="M40.981,28.865A13.566,13.566,0,0,0,27.42,42.426H54.576A13.574,13.574,0,0,0,40.981,28.865Z" transform="translate(16.695 25.779)" fill="#78be1f"/>
  </g>
</svg>
